<svg xmlns="http://www.w3.org/2000/svg" xml:space="preserve" width="25" height="25" viewBox="0 0 51.123 51.123" fill="#f54636">
  <path d="M45.123 0H6C2.691 0 0 2.691 0 6v39.123c0 3.309 2.691 6 6 6h39.123c3.309 0 6-2.691 6-6V6c0-3.309-2.692-6-6-6zm4 45.123c0 2.206-1.794 4-4 4H6c-2.206 0-4-1.794-4-4V6c0-2.206 1.794-4 4-4h39.123c2.206 0 4 1.794 4 4v39.123zM36.791 15.746l-9.815 9.815 9.815 9.815a.999.999 0 1 1-1.414 1.414l-9.815-9.815-9.815 9.815a.997.997 0 0 1-1.414 0 .999.999 0 0 1 0-1.414l9.815-9.815-9.815-9.815a.999.999 0 1 1 1.414-1.414l9.815 9.815 9.815-9.815a.999.999 0 1 1 1.414 1.414z"/>
</svg>